<svg width="20.995117" height="18.276169" viewBox="0 0 20.9951 18.2762" fill="none" xmlns="http://www.w3.org/2000/svg" xmlns:xlink="http://www.w3.org/1999/xlink">
	<desc>
			Created with Pixso.
	</desc>
	<defs/>
	<path id="Vector" d="M18.9585 3.39082L16.3364 3.39082L13.2598 0.292496C12.8481 -0.0975037 12.2202 -0.0975037 11.8081 0.292496C11.4185 0.704163 11.4185 1.3325 11.8081 1.74416L13.4551 3.39082L7.54004 3.39082L9.18652 1.74416C9.57666 1.3325 9.57666 0.704163 9.18652 0.292496C8.79688 -0.0975037 8.14648 -0.0975037 7.75684 0.292496L4.6582 3.39082L2.03662 3.39082C0.910156 3.39082 0 4.30083 0 5.42749L0 8.46083C0 9.02417 0.455078 9.47916 1.01855 9.47916L1.49512 9.47916L2.4917 15.8925C2.68652 17.2792 3.87842 18.2975 5.28662 18.2758L15.73 18.2758C17.1167 18.2975 18.3081 17.2792 18.5034 15.8925L19.5 9.47916L19.9766 9.47916C20.54 9.47916 20.9951 9.02417 20.9951 8.46083L20.9951 5.42749C20.9951 4.30083 20.085 3.39082 18.9585 3.39082ZM2.03662 7.44249L2.03662 5.42749L18.9585 5.42749L18.9585 7.44249L2.03662 7.44249ZM17.4419 9.47916L16.5098 15.5892C16.4448 15.9792 16.1201 16.2608 15.73 16.2608L5.28662 16.2608C4.89648 16.2608 4.5498 15.9792 4.50684 15.5892L3.55322 9.47916L17.4419 9.47916ZM6.78174 13.8775L6.78174 11.8625C6.78174 11.2992 7.23682 10.8442 7.7998 10.8442C8.3418 10.8442 8.79688 11.2992 8.79688 11.8625L8.79688 13.8775C8.79688 14.4408 8.3418 14.8958 7.7998 14.8958C7.23682 14.8958 6.78174 14.4408 6.78174 13.8775ZM11.5049 13.8775L11.5049 11.8625C11.5049 11.2992 11.96 10.8442 12.5234 10.8442C13.0864 10.8442 13.5415 11.2992 13.5415 11.8625L13.5415 13.8775C13.5415 14.4408 13.0864 14.8958 12.5234 14.8958C11.96 14.8958 11.5049 14.4408 11.5049 13.8775Z" fill="#5B5858" fill-opacity="1.000000" fill-rule="nonzero"/>
</svg>