<svg width="19.984375" height="19.984375" viewBox="0 0 19.9844 19.9844" fill="none" xmlns="http://www.w3.org/2000/svg" xmlns:xlink="http://www.w3.org/1999/xlink">
	<desc>
			Created with Pixso.
	</desc>
	<defs>
		<clipPath id="clip5_3583">
			<rect id="svg#Layer_1" width="19.984375" height="19.984375" fill="white" fill-opacity="0"/>
		</clipPath>
	</defs>
	<g clip-path="url(#clip5_3583)">
		<path id="Vector" d="M2.24805 19.9844C1.37402 19.9844 0.874512 19.6097 0.749512 18.9852C0.374512 17.986 1.37402 17.3615 1.74854 17.1117C2.49805 16.6121 2.87256 16.2373 2.99756 15.8627C2.99756 15.6128 2.87256 15.363 2.62305 14.9883C2.62305 14.9883 2.62305 14.8634 2.49805 14.8634C1.24902 13.2396 0.624512 11.2412 0.624512 9.2428C0.624512 4.12183 4.87109 0 9.99219 0C15.1133 0 19.3599 4.12183 19.3599 9.2428C19.3599 14.3638 15.1133 18.4856 9.99219 18.4856C9.36768 18.4856 8.74316 18.3607 8.11865 18.2357C4.87109 19.8595 2.49805 19.9844 2.49805 19.9844C2.37305 19.9844 2.37305 19.9844 2.24805 19.9844ZM4.74609 13.6144C5.37061 14.4886 5.62061 15.4879 5.49561 16.3622C5.49561 16.4872 5.37061 16.7369 5.37061 16.8618C5.99512 16.6121 6.61963 16.3622 7.36914 15.9875C7.61914 15.8627 7.86865 15.7377 8.11865 15.8627L8.24365 15.8627C8.74316 15.9875 9.36768 16.1124 9.99219 16.1124C13.7393 16.1124 16.8618 13.1147 16.8618 9.36768C16.8618 5.62061 13.7393 2.49805 9.99219 2.49805C6.24512 2.49805 3.12256 5.49573 3.12256 9.2428C3.12256 10.7416 3.62207 12.2405 4.62158 13.3646C4.62158 13.4895 4.74609 13.4895 4.74609 13.6144Z" fill="#FFFFFF" fill-opacity="1.000000" fill-rule="nonzero"/>
	</g>
</svg>
