<svg width="15.750000" height="15.750000" viewBox="0 0 15.75 15.75" fill="none" xmlns="http://www.w3.org/2000/svg" xmlns:xlink="http://www.w3.org/1999/xlink">
	<desc>
			Created with Pixso.
	</desc>
	<defs/>
	<path id="" d="M14.4315 1.31836C15.3456 2.23242 15.6269 3.35742 15.6972 4.62305C15.7675 5.92383 15.7675 9.82617 15.6972 11.127C15.6269 12.3926 15.3456 13.4824 14.4315 14.4316C13.5175 15.3457 12.3925 15.627 11.1269 15.6973C9.82607 15.7676 5.92373 15.7676 4.62295 15.6973C3.35732 15.627 2.26748 15.3457 1.31826 14.4316C0.4042 13.4824 0.12295 12.3926 0.0526371 11.127C-0.0176754 9.82617 -0.0176754 5.92383 0.0526371 4.62305C0.12295 3.35742 0.4042 2.23242 1.31826 1.31836C2.26748 0.404297 3.35732 0.123047 4.62295 0.0527344C5.92373 -0.0175781 9.82607 -0.0175781 11.1269 0.0527344C12.3925 0.123047 13.5175 0.404297 14.4315 1.31836ZM12.5331 14.0098C13.2011 13.7285 13.7636 13.2012 14.0097 12.498C14.3682 11.6317 14.3459 9.72454 14.3311 8.45915C14.3285 8.23541 14.3261 8.03173 14.3261 7.85742C14.3261 7.6895 14.3284 7.49182 14.331 7.27349C14.3458 6.02911 14.3686 4.11406 14.0097 3.2168C13.7284 2.54883 13.2011 1.98633 12.5331 1.74023C11.6358 1.38133 9.7208 1.40409 8.47641 1.41888C8.25808 1.42148 8.0604 1.42383 7.89248 1.42383C7.71817 1.42383 7.51449 1.42145 7.29075 1.41883C6.02536 1.40404 4.1182 1.38175 3.25186 1.74023C2.54873 2.02148 2.02139 2.54883 1.74014 3.2168C1.38123 4.11406 1.40399 6.02911 1.41879 7.27349C1.42138 7.49182 1.42373 7.6895 1.42373 7.85742C1.42373 8.03173 1.42135 8.23541 1.41873 8.45915C1.40394 9.72454 1.38165 11.6317 1.74014 12.498C2.02139 13.2012 2.54873 13.7285 3.25186 14.0098C4.1182 14.3683 6.02536 14.346 7.29075 14.3312C7.51449 14.3286 7.71817 14.3262 7.89248 14.3262C8.0604 14.3262 8.25808 14.3285 8.47641 14.3311C9.7208 14.3459 11.6358 14.3687 12.5331 14.0098ZM12.0761 2.72461C12.6034 2.72461 13.0253 3.14648 13.0253 3.67383C13.0253 4.20117 12.6034 4.62305 12.0761 4.62305C11.5487 4.62305 11.1269 4.20117 11.1269 3.67383C11.1269 3.14648 11.5487 2.72461 12.0761 2.72461ZM3.84951 7.85742C3.84951 5.64258 5.64248 3.81445 7.89248 3.81445C10.1073 3.81445 11.9354 5.64258 11.9354 7.85742C11.9354 10.1074 10.1073 11.9004 7.89248 11.9004C5.64248 11.9004 3.84951 10.1074 3.84951 7.85742ZM5.25576 7.85742C5.25576 9.33398 6.45107 10.4941 7.89248 10.4941C9.33389 10.4941 10.494 9.33398 10.494 7.85742C10.494 6.41602 9.33389 5.25586 7.89248 5.25586C6.41592 5.25586 5.25576 6.41602 5.25576 7.85742Z" fill="#FFFFFF" fill-opacity="1.000000" fill-rule="evenodd"/>
</svg>
