<svg width="44.375000" height="35.145020" viewBox="0 0 44.375 35.145" fill="none" xmlns="http://www.w3.org/2000/svg" xmlns:xlink="http://www.w3.org/1999/xlink">
	<desc>
			Created with Pixso.
	</desc>
	<defs/>
	<path id="Vector" d="M13.8452 0.059082L6.44922 0C2.89893 0 0 2.89917 0 6.5083L0 13.9043C0 17.4541 2.89893 20.3533 6.44922 20.3533L14.4956 20.3533C13.9043 24.5542 11.1826 28.1042 7.33643 29.8201C6.09424 30.2935 5.3252 31.595 5.56152 32.8967C5.85742 34.1982 6.98145 35.145 8.34229 35.145C8.63818 35.145 8.99316 35.0859 9.34814 34.9675C16.9219 32.0093 20.3535 24.1401 20.3535 17.5725L20.3535 6.5083C20.3535 2.89917 17.4541 0 13.8452 0.059082ZM37.9258 0.059082L30.5298 0C26.9209 0 24.0215 2.89917 24.0215 6.5083L24.0215 13.9043C24.0215 17.4541 26.9209 20.3533 30.5298 20.3533L38.5176 20.3533C37.9258 24.5542 35.2041 28.1042 31.3584 29.8201C30.1157 30.2935 29.3467 31.595 29.6426 32.8967C29.8794 34.1982 31.0034 35.145 32.3643 35.145C32.7192 35.145 33.0151 35.0859 33.3701 34.9675C40.9434 32.0093 44.375 24.1401 44.375 17.5725L44.375 6.5083C44.375 2.89917 41.4761 0 37.9258 0.059082ZM5.56152 13.9043L5.56152 6.5083C5.56152 5.97583 5.97607 5.56177 6.44922 5.56177L13.8452 5.56177C14.3774 5.56177 14.7915 5.97583 14.7915 6.5083L14.7915 14.7917L6.44922 14.7917C5.97607 14.7917 5.56152 14.4368 5.56152 13.9043ZM29.5835 13.9043L29.5835 6.5083C29.5835 5.97583 29.9976 5.56177 30.5298 5.56177L37.9258 5.56177C38.3989 5.56177 38.8135 5.97583 38.8135 6.5083L38.8135 14.7917L30.5298 14.7917C29.9976 14.7917 29.5835 14.4368 29.5835 13.9043Z" fill="#FFFFFF" fill-opacity="1.000000" fill-rule="nonzero"/>
</svg>
