<svg width="17.964844" height="14.589844" viewBox="0 0 17.9648 14.5898" fill="none" xmlns="http://www.w3.org/2000/svg" xmlns:xlink="http://www.w3.org/1999/xlink">
	<desc>
			Created with Pixso.
	</desc>
	<defs/>
	<path id="" d="M17.9647 1.72266C17.4726 2.46094 16.8397 3.09375 16.1366 3.62109L16.1366 4.11328C16.1366 9 12.4452 14.5898 5.66006 14.5898C3.55068 14.5898 1.61709 13.9922 -9.72748e-05 12.9375C0.281153 12.9727 0.562403 13.0078 0.878809 13.0078C2.60147 13.0078 4.1835 12.4102 5.44912 11.4258C3.83193 11.3906 2.46084 10.3359 2.00381 8.85938C2.2499 8.89453 2.46084 8.92969 2.70693 8.92969C3.02334 8.92969 3.3749 8.85938 3.65615 8.78906C1.96865 8.4375 0.703028 6.96094 0.703028 5.16797L0.703028 5.13281C1.19522 5.41406 1.79287 5.55469 2.39053 5.58984C1.371 4.92188 0.738184 3.79688 0.738184 2.53125C0.738184 1.82812 0.913965 1.19531 1.23037 0.667969C3.0585 2.88281 5.80068 4.35938 8.85928 4.53516Q8.75381 4.11328 8.75381 3.69141C8.75381 1.65234 10.4062 0 12.4452 0C13.4999 0 14.4491 0.421875 15.1522 1.16016C15.9608 0.984375 16.7694 0.667969 17.4726 0.246094C17.1913 1.125 16.6288 1.82812 15.8554 2.28516C16.5937 2.21484 17.3319 2.00391 17.9647 1.72266Z" fill="#FFFFFF" fill-opacity="1.000000" fill-rule="evenodd"/>
</svg>
